<mxfile host="app.diagrams.net">
  <diagram name="On-chain Reminder Asset Architecture">
    <mxGraphModel dx="1380" dy="830" grid="1" gridSize="10" guides="1" tooltips="1" connect="1" arrows="1" fold="1" page="1" pageScale="1" pageWidth="827" pageHeight="1169" math="0" shadow="0">
      <root>
        <mxCell id="0"/>
        <mxCell id="1" parent="0"/>
        <!-- User Browser -->
        <mxCell id="2" value="User Browser&#10;(React/C#/TypeScript)" style="rounded=1;whiteSpace=wrap;html=1;fillColor=#dae8fc;strokeColor=#6c8ebf;" vertex="1" parent="1">
          <mxGeometry x="100" y="80" width="180" height="60" as="geometry"/>
        </mxCell>
        <!-- Backend/API -->
        <mxCell id="3" value="Backend/API&#10;(C#, .NET, Go, etc.)" style="rounded=1;whiteSpace=wrap;html=1;fillColor=#f8cecc;strokeColor=#b85450;" vertex="1" parent="1">
          <mxGeometry x="340" y="80" width="180" height="60" as="geometry"/>
        </mxCell>
        <!-- Blockchain -->
        <mxCell id="4" value="Ethereum Blockchain&#10;(Solidity Contract)&#10;-----------------------------&#10;Reminder ID&#10;Reminder Data&#10;Owner (address)&#10;...&#10;(Reminder as On-Chain Asset!)" style="rounded=1;whiteSpace=wrap;html=1;fillColor=#ffe6cc;strokeColor=#d79b00;" vertex="1" parent="1">
          <mxGeometry x="600" y="60" width="240" height="120" as="geometry"/>
        </mxCell>
        <!-- Off-chain Database -->
        <mxCell id="5" value="Off-chain Database&#10;(Optional, for fast queries, search, etc.)" style="rounded=1;whiteSpace=wrap;html=1;fillColor=#fff2cc;strokeColor=#d6b656;" vertex="1" parent="1">
          <mxGeometry x="360" y="220" width="240" height="60" as="geometry"/>
        </mxCell>
        <!-- Edges -->
        <mxCell id="6" style="edgeStyle=orthogonalEdgeStyle;rounded=0;orthogonalLoop=1;jettySize=auto;html=1;endArrow=block;strokeColor=#6c8ebf;" edge="1" parent="1" source="2" target="3">
          <mxGeometry relative="1" as="geometry"/>
        </mxCell>
        <mxCell id="7" style="edgeStyle=orthogonalEdgeStyle;rounded=0;orthogonalLoop=1;jettySize=auto;html=1;endArrow=block;strokeColor=#b85450;" edge="1" parent="1" source="3" target="4">
          <mxGeometry relative="1" as="geometry"/>
        </mxCell>
        <mxCell id="8" style="edgeStyle=orthogonalEdgeStyle;rounded=0;orthogonalLoop=1;jettySize=auto;html=1;endArrow=block;dashed=1;strokeColor=#d6b656;" edge="1" parent="1" source="4" target="5">
          <mxGeometry relative="1" as="geometry"/>
        </mxCell>
      </root>
    </mxGraphModel>
  </diagram>
</mxfile>